<svg xmlns="http://www.w3.org/2000/svg" viewBox="0 0 1200 760"><rect width="1200" height="760" fill="#d9ddd8"/><rect y="560" width="1200" height="200" fill="#555"/><rect x="70" y="620" width="1060" height="18" fill="#e4b923"/><g transform="translate(230 170)"><path d="M120 340h620c44 0 80-36 80-80V95c0-42-34-75-75-75H350c-46 0-84 31-96 75l-55 205h-79z" fill="#303637"/><path d="M360 45h260v295H270l55-235c5-36 20-60 35-60z" fill="#111"/><path d="M390 75h185v150H345l35-125c3-14 5-22 10-25z" fill="#92b5c8" opacity=".75"/><path d="M650 70h145v190c0 35-28 63-63 63h-82z" fill="#f4f1e8"/><rect x="420" y="350" width="210" height="50" fill="#111"/><circle cx="245" cy="372" r="58" fill="#111"/><circle cx="690" cy="372" r="58" fill="#111"/><circle cx="245" cy="372" r="28" fill="#ccc"/><circle cx="690" cy="372" r="28" fill="#ccc"/><rect x="80" y="300" width="110" height="38" rx="6" fill="#151515"/><line x1="105" y1="335" x2="20" y2="430" stroke="#222" stroke-width="10"/><line x1="190" y1="335" x2="275" y2="430" stroke="#222" stroke-width="10"/><ellipse cx="20" cy="445" rx="105" ry="20" fill="#222"/><ellipse cx="275" cy="445" rx="105" ry="20" fill="#222"/><rect x="105" y="38" width="55" height="35" fill="#e4b923"/><rect x="185" y="38" width="55" height="35" fill="#e4b923"/></g><text x="70" y="90" font-family="Arial" font-size="24" font-weight="700" fill="#222">Compact electric ride-on street sweeper — reference visual</text></svg>
